<svg width="477" height="39" viewBox="0 0 477 39" fill="none" xmlns="http://www.w3.org/2000/svg">
<g clip-path="url(#clip0_477_2)">
<path d="M35.405 28.415C35.5758 28.3414 35.8035 28.2861 36.0691 28.2493C36.3347 28.2125 36.5814 28.1757 36.8091 28.1388C37.0747 28.102 37.3403 28.0836 37.606 28.0836C37.5111 28.857 37.4731 29.6856 37.4731 30.5878C37.4731 31.4901 37.4921 32.3371 37.5301 33.0921C37.568 34.0128 37.6439 34.9334 37.7198 35.8725C35.8035 36.8669 33.7163 37.6402 31.4774 38.1927C29.2385 38.7266 26.8858 39.0029 24.4382 39.0029C21.0419 39.0029 17.8733 38.4873 14.9134 37.4745C11.9535 36.4618 9.37303 35.0623 7.17208 33.3131C4.97112 31.5638 3.22554 29.5014 1.93532 27.1261C0.645107 24.7507 0 22.2281 0 19.5213C0 16.8145 0.645107 14.3102 1.93532 11.9533C3.22554 9.59635 4.97112 7.53402 7.17208 5.76632C9.37303 3.99861 11.9535 2.59918 14.9134 1.58643C17.8922 0.573686 21.0609 0.0581055 24.4572 0.0581055C26.9048 0.0581055 29.2575 0.315896 31.4964 0.868304C33.7353 1.4023 35.8224 2.17567 37.7388 3.18842C37.6439 3.96179 37.587 4.7904 37.549 5.67425C37.5111 6.44762 37.4921 7.29465 37.4921 8.21533C37.4921 9.13601 37.5301 10.0567 37.6249 10.9958C37.3593 11.0326 37.0937 11.0326 36.828 10.9958C36.6004 10.959 36.3727 10.9221 36.126 10.8853C35.8794 10.8485 35.6517 10.7748 35.424 10.6643C35.1583 9.11759 34.5891 7.71816 33.7543 6.44762C33.3558 5.91363 32.8815 5.37963 32.3123 4.88247C31.7621 4.3853 31.098 3.92496 30.3011 3.51986C29.5231 3.11476 28.6124 2.78332 27.5689 2.54394C26.5253 2.28615 25.3299 2.17567 24.0018 2.17567C21.5162 2.17567 19.2394 2.63601 17.1902 3.53827C15.141 4.44054 13.3575 5.69267 11.8396 7.25782C10.3217 8.84139 9.16432 10.6827 8.32947 12.8003C7.5136 14.9179 7.09618 17.1643 7.09618 19.5581C7.09618 21.9519 7.5136 24.2536 8.32947 26.3527C9.14534 28.4519 10.3217 30.2932 11.8396 31.8768C13.3575 33.4604 15.141 34.6941 17.1902 35.5963C19.2394 36.4986 21.4973 36.9589 24.0018 36.9589C26.6771 36.9589 28.7832 36.5354 30.32 35.6516C31.8569 34.7677 33.0143 33.8102 33.7543 32.7422C34.6461 31.4717 35.1963 30.0354 35.424 28.4703" fill="white"/>
<path d="M96.2727 36.2224C96.6712 36.2961 97.1455 36.3881 97.7147 36.4802C98.265 36.5723 98.948 36.7196 99.7449 36.9037V38.3031H82.0424V36.9037C83.2947 36.8669 84.3382 36.738 85.1921 36.4986C85.8941 36.3145 86.5202 35.983 87.0325 35.5227C87.5448 35.0624 87.6397 34.381 87.3361 33.4972L83.067 23.9037H68.3623L64.0174 33.4972C63.6189 34.381 63.6189 35.0439 64.0174 35.4859C64.4158 35.9278 64.9471 36.2592 65.6111 36.4618C66.2752 36.6643 66.9773 36.7932 67.7172 36.8116C68.4572 36.8301 68.9695 36.8669 69.2921 36.8853V38.2847H54.853V36.8853C55.612 36.9221 56.352 36.8301 57.054 36.5907C57.6801 36.3881 58.3252 36.0751 58.9893 35.6148C59.6534 35.1544 60.2605 34.4363 60.7918 33.4788L75.6293 0.923544C75.8949 0.684168 76.3503 0.481618 76.9954 0.315896C77.6405 0.13176 78.2287 0.0581055 78.7599 0.0581055H79.1584L94.1856 33.7366C94.4133 34.1969 94.641 34.5836 94.8497 34.915C95.0774 35.2465 95.3051 35.5043 95.5138 35.6884C95.7415 35.9278 95.9691 36.0935 96.2537 36.204M82.1752 21.8966L75.4206 6.87114L69.2731 21.8966H82.1752Z" fill="white"/>
<path d="M147.578 31.6C147.749 31.6 147.958 31.6184 148.185 31.6552C148.356 31.692 148.565 31.7473 148.811 31.8209C149.058 31.8946 149.343 31.9682 149.646 32.0419C149.513 32.6495 149.381 33.3124 149.248 34.0121C149.153 34.583 149.077 35.2643 149.02 36.0008C148.963 36.7558 148.925 37.5107 148.925 38.2841H119.459V36.9583C120.085 36.8478 120.806 36.7189 121.641 36.59C122.457 36.4612 123.178 36.3507 123.804 36.277C123.937 36.0376 124.07 35.7798 124.202 35.4668C124.297 35.2274 124.373 34.9512 124.468 34.6198C124.563 34.2883 124.601 33.9385 124.601 33.5518V5.48948C124.601 5.10279 124.563 4.75293 124.468 4.4399C124.373 4.12687 124.297 3.85067 124.202 3.57446C124.07 3.29826 123.937 3.04047 123.804 2.76427C123.178 2.69061 122.457 2.58013 121.641 2.45123C120.806 2.32234 120.085 2.19344 119.459 2.08296V0.73877H136.099V2.06455C135.473 2.17503 134.752 2.30393 133.936 2.43282C133.12 2.56172 132.38 2.6722 131.773 2.74585C131.64 3.00364 131.507 3.27985 131.374 3.55605C131.28 3.83225 131.204 4.10846 131.109 4.42149C131.014 4.73452 130.976 5.08438 130.976 5.47106V36.2034H139.723C141.279 36.2034 142.664 36.0745 143.859 35.8167C145.055 35.5589 145.965 35.0617 146.591 34.2883C146.819 34.0121 146.99 33.7359 147.123 33.4413C147.256 33.1467 147.369 32.8521 147.464 32.5391C147.559 32.226 147.597 31.913 147.597 31.5631" fill="white"/>
<path d="M187.935 0.73877C191.312 0.73877 194.31 1.21752 196.89 2.15662C199.471 3.09571 201.653 4.40307 203.398 6.07871C205.163 7.75435 206.491 9.74302 207.402 12.0263C208.312 14.3096 208.768 16.8138 208.768 19.5022C208.768 22.1906 208.312 24.6949 207.402 26.9781C206.491 29.2798 205.144 31.2501 203.398 32.9257C201.634 34.6014 199.471 35.9087 196.89 36.8478C194.31 37.7869 191.331 38.2657 187.935 38.2657H169.758V36.9399C170.384 36.8294 171.105 36.7005 171.94 36.5716C172.756 36.4427 173.477 36.3322 174.103 36.2586C174.236 36.0192 174.368 35.7614 174.501 35.4484C174.596 35.209 174.672 34.9328 174.767 34.6014C174.862 34.2699 174.9 33.9201 174.9 33.5334V5.54472C174.9 5.15803 174.862 4.80817 174.767 4.51356C174.672 4.20053 174.596 3.92432 174.501 3.64812C174.368 3.37191 174.236 3.11412 174.103 2.83792C173.477 2.76427 172.756 2.65378 171.94 2.52489C171.105 2.39599 170.384 2.2671 169.758 2.15662V0.73877H187.935ZM188.39 36.277C190.838 36.277 192.906 35.8535 194.594 35.0065C196.283 34.1594 197.649 32.9994 198.693 31.5079C199.736 30.0164 200.476 28.2671 200.932 26.2232C201.368 24.1793 201.596 21.9512 201.596 19.5206C201.596 17.09 201.368 14.9172 200.932 12.8733C200.476 10.8294 199.736 9.08013 198.693 7.58863C197.649 6.09713 196.283 4.93707 194.594 4.09004C192.906 3.24302 190.838 2.81951 188.39 2.81951H181.237V36.277H188.39Z" fill="white"/>
<path d="M259.94 31.6552C260.111 31.692 260.319 31.7289 260.547 31.7657C260.718 31.8025 260.927 31.8577 261.154 31.913C261.382 31.9682 261.61 32.0419 261.818 32.1155C261.686 32.7784 261.553 33.4413 261.42 34.141C261.325 34.7487 261.249 35.43 261.192 36.1297C261.116 36.8478 261.097 37.566 261.097 38.3025H229.696V36.9767C230.322 36.8662 231.043 36.7374 231.878 36.6085C232.694 36.4796 233.415 36.3691 234.041 36.2954C234.174 36.056 234.306 35.7983 234.439 35.4852C234.515 35.2458 234.61 34.9696 234.705 34.6382C234.8 34.3068 234.838 33.9569 234.838 33.5702V5.54472C234.838 5.15803 234.8 4.80817 234.705 4.51356C234.61 4.20053 234.515 3.90591 234.439 3.64812C234.306 3.37191 234.174 3.11412 234.041 2.83792C233.415 2.76427 232.694 2.65378 231.878 2.52489C231.062 2.39599 230.322 2.2671 229.696 2.15662V0.73877H258.024C258.062 1.51214 258.156 2.30393 258.289 3.15095C258.422 3.97956 258.555 4.71611 258.688 5.379C258.858 6.15237 259.048 6.92574 259.219 7.6807C258.858 7.6807 258.574 7.6807 258.346 7.66228C258.118 7.64387 257.891 7.60704 257.682 7.57021C257.454 7.53339 257.265 7.49656 257.094 7.45973C256.999 7.1467 256.885 6.81526 256.752 6.48381C256.62 6.20761 256.468 5.9314 256.278 5.61837C256.107 5.30534 255.899 5.02914 255.671 4.75293C255.367 4.36625 254.931 4.05322 254.362 3.79543C253.792 3.55605 253.223 3.3535 252.616 3.22461C252.009 3.09571 251.402 2.98523 250.776 2.92999C250.149 2.87475 249.618 2.85633 249.163 2.85633H241.137V17.532H250.548C251.838 17.532 252.635 17.0716 252.92 16.1325C253.204 15.2119 253.394 13.9597 253.489 12.3762L255.215 12.5603V24.4002L253.489 24.4555C253.394 23.0376 253.204 21.8592 252.882 20.9201C252.578 19.9994 251.781 19.5391 250.548 19.5391H241.137V36.2954H252.237C252.673 36.2954 253.223 36.277 253.83 36.2402C254.457 36.2034 255.083 36.1297 255.709 36.0008C256.335 35.8903 256.923 35.7246 257.473 35.5036C258.024 35.3011 258.46 35.0065 258.783 34.6198C259.01 34.3436 259.181 34.049 259.314 33.7175C259.447 33.3861 259.56 33.073 259.655 32.76C259.788 32.4102 259.883 32.0419 259.921 31.6552" fill="white"/>
<path d="M303.846 19.2979C305.269 19.6477 306.483 20.329 307.489 21.3602C308.494 22.3729 309.367 23.533 310.126 24.8219C310.885 26.1109 311.568 27.4735 312.194 28.8913C312.821 30.3092 313.447 31.6166 314.073 32.8134C314.699 34.0103 315.382 34.9862 316.141 35.7596C316.9 36.533 317.811 36.9197 318.873 36.9197L318.342 38.3007H312.062C310.942 38.3007 310.012 37.8588 309.253 36.9749C308.495 36.0911 307.811 34.9862 307.242 33.6605C306.654 32.3347 306.104 30.88 305.573 29.3333C305.041 27.7681 304.434 26.3319 303.77 25.0061C303.106 23.6803 302.328 22.5755 301.474 21.6916C300.601 20.8078 299.52 20.3659 298.23 20.3659L297.167 18.635C298.419 18.5613 299.691 18.3404 300.981 17.9905C302.271 17.6406 303.447 17.1435 304.491 16.499C305.535 15.8361 306.388 15.0075 307.071 13.9763C307.736 12.9636 308.077 11.7299 308.077 10.312C308.077 9.28087 307.849 8.30495 307.413 7.38427C306.958 6.482 306.313 5.69021 305.478 4.9905C304.624 4.29078 303.599 3.75679 302.404 3.3701C301.209 2.98342 299.842 2.79928 298.325 2.79928H294.321V33.5316C294.321 34.0656 294.397 34.5443 294.53 34.9494C294.663 35.3545 294.795 35.6675 294.928 35.9069L295.137 36.2568C295.763 36.3304 296.484 36.4409 297.3 36.5698C298.116 36.6987 298.856 36.8276 299.463 36.9381V38.3191H282.899V36.9381C283.525 36.8276 284.227 36.6987 285.024 36.5698C285.821 36.4409 286.561 36.3304 287.225 36.2568C287.32 36.0174 287.415 35.7596 287.566 35.4466C287.661 35.2072 287.737 34.931 287.832 34.5996C287.927 34.2681 287.965 33.9183 287.965 33.5316V5.48767C287.965 5.10098 287.927 4.75112 287.832 4.43809C287.737 4.12506 287.661 3.84886 287.566 3.57265C287.434 3.29645 287.32 3.03866 287.225 2.76245C286.561 2.6888 285.821 2.57832 285.024 2.44942C284.227 2.32053 283.506 2.19163 282.899 2.08115V0.755371H298.4C300.45 0.755371 302.423 0.90268 304.339 1.1973C306.256 1.49191 307.963 1.98908 309.443 2.70721C310.942 3.42534 312.137 4.36444 313.048 5.56132C313.959 6.7582 314.414 8.26812 314.414 10.1279C314.414 11.1222 314.263 12.0245 313.94 12.8163C313.636 13.6081 313.238 14.3078 312.745 14.9338C312.251 15.5599 311.701 16.0939 311.075 16.5542C310.449 17.0146 309.804 17.4013 309.14 17.7143C307.584 18.4877 305.819 19.0217 303.865 19.3347" fill="white"/>
<path d="M356.953 0.000976562C359.931 0.000976562 362.74 0.442903 365.339 1.28993C367.938 2.15537 370.196 3.40749 372.113 5.0463C374.029 6.68511 375.528 8.67378 376.628 10.9939C377.71 13.3324 378.26 15.9287 378.26 18.8197C378.26 22.0605 377.558 24.933 376.154 27.4372C374.75 29.9415 372.928 32.0406 370.652 33.7347C368.375 35.4287 365.813 36.7177 362.929 37.6015C360.064 38.4854 357.142 38.9273 354.201 38.9273C351.659 38.9273 349.173 38.4854 346.726 37.6015C344.278 36.7177 342.096 35.4287 340.18 33.7531C338.263 32.0775 336.708 30.0336 335.531 27.6398C334.355 25.2276 333.767 22.484 333.767 19.4089C333.767 16.518 334.393 13.8848 335.645 11.4911C336.897 9.09729 338.586 7.05338 340.711 5.34092C342.855 3.62846 345.322 2.30268 348.13 1.382C350.938 0.461316 353.879 0.000976563 356.934 0.000976563M370.841 18.7644C370.841 16.61 370.519 14.5293 369.874 12.5222C369.229 10.5151 368.261 8.74743 367.009 7.18228C365.737 5.61712 364.163 4.38341 362.303 3.46273C360.444 2.54205 358.3 2.08171 355.89 2.08171C353.841 2.08171 351.924 2.54205 350.122 3.44432C348.319 4.34659 346.726 5.5803 345.379 7.14545C344.012 8.71061 342.95 10.5336 342.172 12.6327C341.394 14.7319 340.996 16.9783 340.996 19.3721C340.996 21.1398 341.299 23.0548 341.906 25.0803C342.513 27.1242 343.405 29.0208 344.62 30.7701C345.815 32.5194 347.314 33.9741 349.116 35.1341C350.919 36.2942 353.025 36.865 355.435 36.865C357.446 36.865 359.362 36.4599 361.222 35.6497C363.062 34.8395 364.713 33.6794 366.136 32.1511C367.559 30.6228 368.716 28.7446 369.57 26.4797C370.443 24.2333 370.879 21.6554 370.879 18.7644" fill="white"/>
<path d="M438.977 0.73877V2.1382C438.711 2.17503 438.256 2.21186 437.611 2.24868C436.966 2.28551 436.302 2.41441 435.6 2.59854C434.916 2.80109 434.309 3.11412 433.797 3.57446C433.285 4.0348 433.038 4.69769 433.038 5.54472V38.3025H430.628L403.781 8.84075V33.5702C403.781 34.4172 404.027 35.0617 404.558 35.5036C405.071 35.9456 405.659 36.277 406.361 36.4796C407.044 36.6821 407.708 36.811 408.353 36.8478C408.998 36.8847 409.454 36.9215 409.719 36.9583V38.2841H395.413V36.9583C395.679 36.9215 396.134 36.8847 396.779 36.8478C397.424 36.811 398.088 36.6821 398.771 36.4796C399.455 36.277 400.062 35.9456 400.574 35.5036C401.086 35.0617 401.352 34.4172 401.352 33.5702V6.70477C401.352 6.39174 401.219 6.02347 400.953 5.58154C400.688 5.13962 400.384 4.71611 400.043 4.32942C399.701 3.94274 399.379 3.61129 399.037 3.3535C398.715 3.0773 398.487 2.9484 398.411 2.9484C398.107 2.87475 397.804 2.80109 397.538 2.72744C397.31 2.65378 397.083 2.59854 396.874 2.56172C396.646 2.52489 396.514 2.46965 396.476 2.37758C396.381 2.34075 396.324 2.23027 396.267 2.06455C396.229 1.89883 396.153 1.71469 396.077 1.51214C395.982 1.27276 395.925 1.03339 395.868 0.757183H404.691L430.609 29.464V5.54472C430.609 4.69769 430.344 4.0348 429.831 3.57446C429.319 3.11412 428.731 2.78268 428.029 2.59854C427.346 2.41441 426.663 2.28551 426.037 2.24868C425.392 2.21186 424.936 2.17503 424.671 2.1382V0.73877H438.958H438.977Z" fill="white"/>
<path d="M472.654 36.2218C473.28 36.2954 474.001 36.4059 474.817 36.5348C475.652 36.6637 476.373 36.7926 476.98 36.9031V38.2841H460.416V36.9031C461.042 36.7926 461.763 36.6637 462.579 36.5348C463.395 36.4059 464.116 36.2954 464.742 36.2218C464.875 35.9824 465.008 35.7246 465.14 35.4116C465.235 35.1722 465.311 34.896 465.406 34.5645C465.482 34.2331 465.539 33.8832 465.539 33.4966V5.48948C465.539 5.10279 465.482 4.75293 465.406 4.4399C465.311 4.12687 465.216 3.85067 465.14 3.57446C465.008 3.29826 464.875 3.04047 464.742 2.76427C464.116 2.69061 463.395 2.58013 462.579 2.45123C461.763 2.32234 461.042 2.19344 460.416 2.08296V0.73877H476.98V2.06455C476.354 2.17503 475.633 2.30393 474.817 2.43282C474.001 2.56172 473.28 2.6722 472.654 2.74585C472.521 3.02206 472.388 3.27985 472.256 3.55605C472.161 3.83225 472.085 4.10846 471.99 4.42149C471.895 4.73452 471.857 5.08438 471.857 5.47106V33.4966C471.857 33.8832 471.895 34.2331 471.99 34.5645C472.085 34.896 472.161 35.1722 472.256 35.4116C472.388 35.7246 472.521 35.9824 472.654 36.2218Z" fill="white"/>
</g>
<defs>
<clipPath id="clip0_477_2">
<rect width="477" height="39" fill="white"/>
</clipPath>
</defs>
</svg>
